<svg xmlns="http://www.w3.org/2000/svg" viewBox="0 0 16 16" width="16" height="16">
<cis-name>person-remove</cis-name>
<cis-semantic>warning</cis-semantic>
<path fill="#F75C03" d="M8,10.38c0-0.26,0.08-0.71,0.38-1S9.4,8.34,9.4,8.34c0.32-0.32,0.64-0.32,1.51-0.32
	C10.97,7.84,11,7.65,11,7.5l0-2.37c0-1.45-0.97-2.79-2.4-3.07C6.69,1.68,5,3.15,5,5v2.5C5,8.05,5.45,9,6,9v0.75
	c0,0.14-0.09,0.31-0.21,0.39l-3.58,2.3C2.09,12.51,2,12.69,2,12.82v0.93C2,13.89,2.11,14,2.25,14H8c0,0,0.01-0.29,0.01-0.48
	s0.07-0.37,0.26-0.56s0.81-0.85,0.81-0.85s-0.17-0.19-0.77-0.84C8.06,11.03,8,10.64,8,10.38z M13.41,12l1.31-1.31
	c0.19-0.19,0.19-0.51,0-0.71l-0.71-0.71c-0.19-0.19-0.51-0.19-0.71,0L12,10.59l-1.31-1.31c-0.19-0.19-0.51-0.19-0.71,0L9.28,9.98
	c-0.19,0.19-0.19,0.51,0,0.71L10.59,12l-1.31,1.31c-0.19,0.19-0.19,0.51,0,0.71l0.71,0.71c0.19,0.19,0.51,0.19,0.71,0L12,13.41
	l1.31,1.31c0.19,0.19,0.51,0.19,0.71,0l0.71-0.71c0.19-0.19,0.19-0.51,0-0.71L13.41,12z"/>
</svg>
